<svg width="18" height="19" viewBox="0 0 18 19" fill="none" xmlns="http://www.w3.org/2000/svg">
<path d="M10.6228 4.51504H5.78532C5.32576 4.51504 4.95282 4.1421 4.95282 3.68254V2.4141C4.95282 1.95454 5.32576 1.5816 5.78532 1.5816H10.6228C11.0824 1.5816 11.4553 1.95454 11.4553 2.4141V3.68254C11.4553 4.14267 11.0824 4.51504 10.6228 4.51504Z" fill="#AECCE0"/>
<path d="M16.2169 10.576C15.6994 10.0585 14.8556 10.0585 14.3381 10.576L13.7239 11.1936L15.6038 13.0729L16.2169 12.4598C16.74 11.9372 16.74 11.0991 16.2169 10.576Z" fill="#AECCE0"/>
<path d="M13.1287 11.791L9.84936 15.0647C9.78186 15.1379 9.73686 15.2279 9.71999 15.3235L9.47249 16.7804C9.41624 17.101 9.69748 17.3766 10.0181 17.326L11.475 17.0785C11.5706 17.0616 11.6606 17.0166 11.7281 16.9491L15.0075 13.6697L13.1287 11.791Z" fill="#AECCE0"/>
<path d="M12.9994 3.04973H12.2991V3.68254C12.2991 4.60673 11.547 5.35879 10.6228 5.35879H5.78531C4.86056 5.35879 4.10906 4.60673 4.10906 3.68254V3.04973H3.3975C2.28937 3.04973 1.38937 3.94973 1.38937 5.05785V15.3235C1.38937 16.4316 2.28937 17.3316 3.3975 17.3316H8.71706C8.63156 17.1117 8.5995 16.8732 8.64112 16.6352L8.88806 15.1823C8.93194 14.9247 9.05006 14.6867 9.22781 14.4927L12.8081 10.9174L13.7391 9.98142C14.085 9.63492 14.5288 9.4296 15.0064 9.37054V5.06348C15.0075 3.9441 14.1131 3.04973 12.9994 3.04973ZM7.32825 11.3933H4.88756C4.608 11.3933 4.38131 11.1666 4.38131 10.887C4.38131 10.6075 4.608 10.3808 4.88756 10.3808H7.32825C7.60781 10.3808 7.8345 10.6075 7.8345 10.887C7.8345 11.1666 7.60781 11.3933 7.32825 11.3933ZM10.3162 8.52004H4.88812C4.60856 8.52004 4.38187 8.29335 4.38187 8.01379C4.38187 7.73423 4.60856 7.50754 4.88812 7.50754H10.3162C10.5958 7.50754 10.8225 7.73423 10.8225 8.01379C10.8225 8.29335 10.5958 8.52004 10.3162 8.52004Z" fill="#87AAC1"/>
</svg>
