<svg width="60" height="17" viewBox="0 0 60 17" fill="none" xmlns="http://www.w3.org/2000/svg">
<rect y="0.694702" width="60" height="16" rx="2" fill="#045C99"/>
<path d="M6.05 12.6947V5.6947H8.78C9.39333 5.6947 9.91667 5.79137 10.35 5.9847C10.7833 6.17804 11.1167 6.45804 11.35 6.8247C11.5833 7.19137 11.7 7.62804 11.7 8.1347C11.7 8.64137 11.5833 9.07804 11.35 9.4447C11.1167 9.8047 10.7833 10.0814 10.35 10.2747C9.91667 10.468 9.39333 10.5647 8.78 10.5647H6.6L7.05 10.1047V12.6947H6.05ZM10.73 12.6947L8.95 10.1547H10.02L11.82 12.6947H10.73ZM7.05 10.2047L6.6 9.7147H8.75C9.39 9.7147 9.87333 9.57804 10.2 9.3047C10.5333 9.0247 10.7 8.6347 10.7 8.1347C10.7 7.6347 10.5333 7.24804 10.2 6.9747C9.87333 6.70137 9.39 6.5647 8.75 6.5647H6.6L7.05 6.0647V10.2047ZM15.5356 12.7547C14.969 12.7547 14.469 12.638 14.0356 12.4047C13.609 12.1714 13.2756 11.8514 13.0356 11.4447C12.8023 11.038 12.6856 10.5714 12.6856 10.0447C12.6856 9.51804 12.799 9.05137 13.0256 8.6447C13.259 8.23804 13.5756 7.92137 13.9756 7.6947C14.3823 7.46137 14.839 7.3447 15.3456 7.3447C15.859 7.3447 16.3123 7.45804 16.7056 7.6847C17.099 7.91137 17.4056 8.23137 17.6256 8.6447C17.8523 9.05137 17.9656 9.52804 17.9656 10.0747C17.9656 10.1147 17.9623 10.1614 17.9556 10.2147C17.9556 10.268 17.9523 10.318 17.9456 10.3647H13.4356V9.6747H17.4456L17.0556 9.9147C17.0623 9.5747 16.9923 9.27137 16.8456 9.0047C16.699 8.73804 16.4956 8.53137 16.2356 8.3847C15.9823 8.23137 15.6856 8.1547 15.3456 8.1547C15.0123 8.1547 14.7156 8.23137 14.4556 8.3847C14.1956 8.53137 13.9923 8.74137 13.8456 9.0147C13.699 9.28137 13.6256 9.58804 13.6256 9.9347V10.0947C13.6256 10.448 13.7056 10.7647 13.8656 11.0447C14.0323 11.318 14.2623 11.5314 14.5556 11.6847C14.849 11.838 15.1856 11.9147 15.5656 11.9147C15.879 11.9147 16.1623 11.8614 16.4156 11.7547C16.6756 11.648 16.9023 11.488 17.0956 11.2747L17.6256 11.8947C17.3856 12.1747 17.0856 12.388 16.7256 12.5347C16.3723 12.6814 15.9756 12.7547 15.5356 12.7547ZM21.6087 12.7547C21.0687 12.7547 20.5853 12.638 20.1587 12.4047C19.7387 12.1714 19.4087 11.8514 19.1687 11.4447C18.9287 11.038 18.8087 10.5714 18.8087 10.0447C18.8087 9.51804 18.9287 9.05137 19.1687 8.6447C19.4087 8.23804 19.7387 7.92137 20.1587 7.6947C20.5853 7.46137 21.0687 7.3447 21.6087 7.3447C22.0887 7.3447 22.5153 7.44137 22.8887 7.6347C23.2687 7.82137 23.562 8.10137 23.7687 8.4747L23.0387 8.9447C22.8653 8.6847 22.652 8.4947 22.3987 8.3747C22.152 8.24804 21.8853 8.1847 21.5987 8.1847C21.252 8.1847 20.942 8.26137 20.6687 8.4147C20.3953 8.56804 20.1787 8.7847 20.0187 9.0647C19.8587 9.33804 19.7787 9.6647 19.7787 10.0447C19.7787 10.4247 19.8587 10.7547 20.0187 11.0347C20.1787 11.3147 20.3953 11.5314 20.6687 11.6847C20.942 11.838 21.252 11.9147 21.5987 11.9147C21.8853 11.9147 22.152 11.8547 22.3987 11.7347C22.652 11.608 22.8653 11.4147 23.0387 11.1547L23.7687 11.6147C23.562 11.9814 23.2687 12.2647 22.8887 12.4647C22.5153 12.658 22.0887 12.7547 21.6087 12.7547ZM27.2034 12.7547C26.6701 12.7547 26.1968 12.638 25.7834 12.4047C25.3701 12.1714 25.0434 11.8514 24.8034 11.4447C24.5634 11.0314 24.4434 10.5647 24.4434 10.0447C24.4434 9.51804 24.5634 9.05137 24.8034 8.6447C25.0434 8.23804 25.3701 7.92137 25.7834 7.6947C26.1968 7.46137 26.6701 7.3447 27.2034 7.3447C27.7301 7.3447 28.2001 7.46137 28.6134 7.6947C29.0334 7.92137 29.3601 8.23804 29.5934 8.6447C29.8334 9.0447 29.9534 9.51137 29.9534 10.0447C29.9534 10.5714 29.8334 11.038 29.5934 11.4447C29.3601 11.8514 29.0334 12.1714 28.6134 12.4047C28.2001 12.638 27.7301 12.7547 27.2034 12.7547ZM27.2034 11.9147C27.5434 11.9147 27.8468 11.838 28.1134 11.6847C28.3868 11.5314 28.6001 11.3147 28.7534 11.0347C28.9068 10.748 28.9834 10.418 28.9834 10.0447C28.9834 9.6647 28.9068 9.33804 28.7534 9.0647C28.6001 8.7847 28.3868 8.56804 28.1134 8.4147C27.8468 8.26137 27.5434 8.1847 27.2034 8.1847C26.8634 8.1847 26.5601 8.26137 26.2934 8.4147C26.0268 8.56804 25.8134 8.7847 25.6534 9.0647C25.4934 9.33804 25.4134 9.6647 25.4134 10.0447C25.4134 10.418 25.4934 10.748 25.6534 11.0347C25.8134 11.3147 26.0268 11.5314 26.2934 11.6847C26.5601 11.838 26.8634 11.9147 27.2034 11.9147ZM31.2811 12.6947V7.3947H32.2011V8.8347L32.1111 8.4747C32.2578 8.10804 32.5044 7.82804 32.8511 7.6347C33.1978 7.44137 33.6244 7.3447 34.1311 7.3447V8.2747C34.0911 8.26804 34.0511 8.2647 34.0111 8.2647C33.9778 8.2647 33.9444 8.2647 33.9111 8.2647C33.3978 8.2647 32.9911 8.41804 32.6911 8.7247C32.3911 9.03137 32.2411 9.4747 32.2411 10.0547V12.6947H31.2811ZM37.4555 12.7547C36.9421 12.7547 36.4821 12.6414 36.0755 12.4147C35.6755 12.188 35.3588 11.8714 35.1255 11.4647C34.8921 11.058 34.7755 10.5847 34.7755 10.0447C34.7755 9.5047 34.8921 9.0347 35.1255 8.6347C35.3588 8.22804 35.6755 7.91137 36.0755 7.6847C36.4821 7.45804 36.9421 7.3447 37.4555 7.3447C37.9021 7.3447 38.3055 7.4447 38.6655 7.6447C39.0255 7.8447 39.3121 8.1447 39.5255 8.5447C39.7455 8.9447 39.8555 9.4447 39.8555 10.0447C39.8555 10.6447 39.7488 11.1447 39.5355 11.5447C39.3288 11.9447 39.0455 12.248 38.6855 12.4547C38.3255 12.6547 37.9155 12.7547 37.4555 12.7547ZM37.5355 11.9147C37.8688 11.9147 38.1688 11.838 38.4355 11.6847C38.7088 11.5314 38.9221 11.3147 39.0755 11.0347C39.2355 10.748 39.3155 10.418 39.3155 10.0447C39.3155 9.6647 39.2355 9.33804 39.0755 9.0647C38.9221 8.7847 38.7088 8.56804 38.4355 8.4147C38.1688 8.26137 37.8688 8.1847 37.5355 8.1847C37.1955 8.1847 36.8921 8.26137 36.6255 8.4147C36.3588 8.56804 36.1455 8.7847 35.9855 9.0647C35.8255 9.33804 35.7455 9.6647 35.7455 10.0447C35.7455 10.418 35.8255 10.748 35.9855 11.0347C36.1455 11.3147 36.3588 11.5314 36.6255 11.6847C36.8921 11.838 37.1955 11.9147 37.5355 11.9147ZM39.3455 12.6947V11.2647L39.4055 10.0347L39.3055 8.8047V5.2747H40.2655V12.6947H39.3455ZM44.4419 12.7547C43.8752 12.7547 43.3752 12.638 42.9419 12.4047C42.5152 12.1714 42.1819 11.8514 41.9419 11.4447C41.7085 11.038 41.5919 10.5714 41.5919 10.0447C41.5919 9.51804 41.7052 9.05137 41.9319 8.6447C42.1652 8.23804 42.4819 7.92137 42.8819 7.6947C43.2885 7.46137 43.7452 7.3447 44.2519 7.3447C44.7652 7.3447 45.2185 7.45804 45.6119 7.6847C46.0052 7.91137 46.3119 8.23137 46.5319 8.6447C46.7585 9.05137 46.8719 9.52804 46.8719 10.0747C46.8719 10.1147 46.8685 10.1614 46.8619 10.2147C46.8619 10.268 46.8585 10.318 46.8519 10.3647H42.3419V9.6747H46.3519L45.9619 9.9147C45.9685 9.5747 45.8985 9.27137 45.7519 9.0047C45.6052 8.73804 45.4019 8.53137 45.1419 8.3847C44.8885 8.23137 44.5919 8.1547 44.2519 8.1547C43.9185 8.1547 43.6219 8.23137 43.3619 8.3847C43.1019 8.53137 42.8985 8.74137 42.7519 9.0147C42.6052 9.28137 42.5319 9.58804 42.5319 9.9347V10.0947C42.5319 10.448 42.6119 10.7647 42.7719 11.0447C42.9385 11.318 43.1685 11.5314 43.4619 11.6847C43.7552 11.838 44.0919 11.9147 44.4719 11.9147C44.7852 11.9147 45.0685 11.8614 45.3219 11.7547C45.5819 11.648 45.8085 11.488 46.0019 11.2747L46.5319 11.8947C46.2919 12.1747 45.9919 12.388 45.6319 12.5347C45.2785 12.6814 44.8819 12.7547 44.4419 12.7547ZM50.3949 12.7547C49.8816 12.7547 49.4216 12.6414 49.0149 12.4147C48.6149 12.188 48.2983 11.8714 48.0649 11.4647C47.8316 11.058 47.7149 10.5847 47.7149 10.0447C47.7149 9.5047 47.8316 9.0347 48.0649 8.6347C48.2983 8.22804 48.6149 7.91137 49.0149 7.6847C49.4216 7.45804 49.8816 7.3447 50.3949 7.3447C50.8416 7.3447 51.2449 7.4447 51.6049 7.6447C51.9649 7.8447 52.2516 8.1447 52.4649 8.5447C52.6849 8.9447 52.7949 9.4447 52.7949 10.0447C52.7949 10.6447 52.6883 11.1447 52.4749 11.5447C52.2683 11.9447 51.9849 12.248 51.6249 12.4547C51.2649 12.6547 50.8549 12.7547 50.3949 12.7547ZM50.4749 11.9147C50.8083 11.9147 51.1083 11.838 51.3749 11.6847C51.6483 11.5314 51.8616 11.3147 52.0149 11.0347C52.1749 10.748 52.2549 10.418 52.2549 10.0447C52.2549 9.6647 52.1749 9.33804 52.0149 9.0647C51.8616 8.7847 51.6483 8.56804 51.3749 8.4147C51.1083 8.26137 50.8083 8.1847 50.4749 8.1847C50.1349 8.1847 49.8316 8.26137 49.5649 8.4147C49.2983 8.56804 49.0849 8.7847 48.9249 9.0647C48.7649 9.33804 48.6849 9.6647 48.6849 10.0447C48.6849 10.418 48.7649 10.748 48.9249 11.0347C49.0849 11.3147 49.2983 11.5314 49.5649 11.6847C49.8316 11.838 50.1349 11.9147 50.4749 11.9147ZM52.2849 12.6947V11.2647L52.3449 10.0347L52.2449 8.8047V5.2747H53.2049V12.6947H52.2849Z" fill="white"/>
</svg>
