<svg width="37" height="17" viewBox="0 0 37 17" fill="none" xmlns="http://www.w3.org/2000/svg">
<rect y="0.962952" width="37" height="16" rx="2" fill="#D95C07"/>
<circle cx="7" cy="8.96295" r="2" fill="white"/>
<path d="M12.05 12.963V5.96295H13.05V12.093H16.84V12.963H12.05ZM18.3275 6.64295C17.9575 6.64295 17.6775 6.37295 17.6775 6.02295C17.6775 5.67295 17.9575 5.39295 18.3275 5.39295C18.6975 5.39295 18.9775 5.66295 18.9775 6.00295C18.9775 6.36295 18.7075 6.64295 18.3275 6.64295ZM17.8475 12.963V7.66295H18.8075V12.963H17.8475ZM24.3905 7.66295H25.3305L23.0105 12.963H22.0305L19.7105 7.66295H20.7105L22.5305 11.913L24.3905 7.66295ZM30.8699 10.343C30.8699 10.423 30.8599 10.543 30.8499 10.633H26.5499C26.6699 11.563 27.4199 12.183 28.4699 12.183C29.0899 12.183 29.6099 11.973 29.9999 11.543L30.5299 12.163C30.0499 12.723 29.3199 13.023 28.4399 13.023C26.7299 13.023 25.5899 11.893 25.5899 10.313C25.5899 8.74295 26.7199 7.61295 28.2499 7.61295C29.7799 7.61295 30.8699 8.71295 30.8699 10.343ZM28.2499 8.42295C27.3299 8.42295 26.6499 9.04295 26.5499 9.94295H29.9499C29.8499 9.05295 29.1799 8.42295 28.2499 8.42295Z" fill="white"/>
</svg>
