<svg width="58" height="17" viewBox="0 0 58 17" fill="none" xmlns="http://www.w3.org/2000/svg">
<rect y="0.962952" width="58" height="16" rx="2" fill="#B5842F"/>
<path d="M8.78 5.96295C10.6 5.96295 11.7 6.88295 11.7 8.40295C11.7 9.92295 10.6 10.843 8.78 10.843H7.05V12.963H6.05V5.96295H8.78ZM8.75 9.97295C10.03 9.97295 10.7 9.40295 10.7 8.40295C10.7 7.40295 10.03 6.83295 8.75 6.83295H7.05V9.97295H8.75ZM13.8613 8.55295C14.2013 7.93295 14.8613 7.61295 15.7913 7.61295V8.54295C15.7113 8.53295 15.6413 8.53295 15.5713 8.53295C14.5413 8.53295 13.9013 9.16295 13.9013 10.323V12.963H12.9413V7.66295H13.8613V8.55295ZM21.7156 10.343C21.7156 10.423 21.7056 10.543 21.6956 10.633H17.3956C17.5156 11.563 18.2656 12.183 19.3156 12.183C19.9356 12.183 20.4556 11.973 20.8456 11.543L21.3756 12.163C20.8956 12.723 20.1656 13.023 19.2856 13.023C17.5756 13.023 16.4356 11.893 16.4356 10.313C16.4356 8.74295 17.5656 7.61295 19.0956 7.61295C20.6256 7.61295 21.7156 8.71295 21.7156 10.343ZM19.0956 8.42295C18.1756 8.42295 17.4956 9.04295 17.3956 9.94295H20.7956C20.6956 9.05295 20.0256 8.42295 19.0956 8.42295ZM29.6787 7.61295C30.9687 7.61295 31.8487 8.35295 31.8487 9.91295V12.963H30.8887V10.023C30.8887 8.98295 30.3887 8.47295 29.5187 8.47295C28.5587 8.47295 27.9287 9.08295 27.9287 10.233V12.963H26.9687V10.023C26.9687 8.98295 26.4687 8.47295 25.5987 8.47295C24.6387 8.47295 24.0087 9.08295 24.0087 10.233V12.963H23.0487V7.66295H23.9687V8.45295C24.3487 7.91295 24.9987 7.61295 25.7987 7.61295C26.6087 7.61295 27.2887 7.93295 27.6387 8.59295C28.0387 7.99295 28.7787 7.61295 29.6787 7.61295ZM34.0951 6.64295C33.7251 6.64295 33.4451 6.37295 33.4451 6.02295C33.4451 5.67295 33.7251 5.39295 34.0951 5.39295C34.4651 5.39295 34.7451 5.66295 34.7451 6.00295C34.7451 6.36295 34.4751 6.64295 34.0951 6.64295ZM33.6151 12.963V7.66295H34.5751V12.963H33.6151ZM40.388 7.66295H41.348V12.963H40.438V12.163C40.048 12.713 39.388 13.023 38.638 13.023C37.268 13.023 36.358 12.273 36.358 10.713V7.66295H37.318V10.603C37.318 11.643 37.838 12.163 38.748 12.163C39.748 12.163 40.388 11.543 40.388 10.403V7.66295ZM49.8056 7.61295C51.0956 7.61295 51.9756 8.35295 51.9756 9.91295V12.963H51.0156V10.023C51.0156 8.98295 50.5156 8.47295 49.6456 8.47295C48.6856 8.47295 48.0556 9.08295 48.0556 10.233V12.963H47.0956V10.023C47.0956 8.98295 46.5956 8.47295 45.7256 8.47295C44.7656 8.47295 44.1356 9.08295 44.1356 10.233V12.963H43.1756V7.66295H44.0956V8.45295C44.4756 7.91295 45.1256 7.61295 45.9256 7.61295C46.7356 7.61295 47.4156 7.93295 47.7656 8.59295C48.1656 7.99295 48.9056 7.61295 49.8056 7.61295Z" fill="white"/>
</svg>
