<svg width="52" height="52" viewBox="0 0 52 52" fill="none" xmlns="http://www.w3.org/2000/svg">
<circle cx="26" cy="26" r="24" fill="#D95C07" stroke="#FFDFCA" stroke-width="4"/>
<path d="M17.5282 20.0699C17.5282 19.6014 17.9077 19.2227 18.3754 19.2227H29.3885C29.8561 19.2227 30.2357 19.6014 30.2357 20.0699C30.2357 20.5384 29.8561 20.917 29.3885 20.917H18.3754C17.9077 20.917 17.5282 20.5384 17.5282 20.0699ZM33.6243 25.1529H18.3754C17.9077 25.1529 17.5282 25.5316 17.5282 26C17.5282 26.4685 17.9077 26.8472 18.3754 26.8472H33.6243C34.092 26.8472 34.4715 26.4685 34.4715 26C34.4715 25.5316 34.092 25.1529 33.6243 25.1529ZM25.9998 31.083H18.3754C17.9077 31.083 17.5282 31.4617 17.5282 31.9302C17.5282 32.3987 17.9077 32.7774 18.3754 32.7774H25.9998C26.4675 32.7774 26.847 32.3987 26.847 31.9302C26.847 31.4617 26.4675 31.083 25.9998 31.083Z" fill="white"/>
</svg>
