<svg width="44" height="44" viewBox="0 0 44 44" fill="none" xmlns="http://www.w3.org/2000/svg">
<circle cx="22" cy="22" r="21.5" fill="white" stroke="#DFE5EB"/>
<g clip-path="url(#clip0_1_1079)">
<path d="M21.1604 14.96C17.7415 14.96 14.9598 17.7417 14.9598 21.1606C14.9598 24.5796 17.7415 27.3611 21.1604 27.3611C24.5795 27.3611 27.3609 24.5796 27.3609 21.1606C27.3609 17.7417 24.5795 14.96 21.1604 14.96ZM21.1604 26.2164C18.3726 26.2164 16.1046 23.9483 16.1046 21.1606C16.1046 18.3728 18.3726 16.1047 21.1604 16.1047C23.9481 16.1047 26.2162 18.3728 26.2162 21.1606C26.2162 23.9483 23.9481 26.2164 21.1604 26.2164Z" fill="#1C1E21"/>
<path d="M28.8721 28.063L25.5906 24.7815C25.367 24.5579 25.0049 24.5579 24.7813 24.7815C24.5577 25.0049 24.5577 25.3674 24.7813 25.5908L28.0628 28.8723C28.1746 28.9841 28.321 29.04 28.4675 29.04C28.6138 29.04 28.7603 28.9841 28.8721 28.8723C29.0957 28.6489 29.0957 28.2864 28.8721 28.063Z" fill="#1C1E21"/>
</g>
<defs>
<clipPath id="clip0_1_1079">
<rect width="14.08" height="14.08" fill="white" transform="translate(14.9598 14.96)"/>
</clipPath>
</defs>
</svg>
