<svg width="30" height="31" viewBox="0 0 30 31" fill="none" xmlns="http://www.w3.org/2000/svg">
<g clip-path="url(#clip0_1_1330)">
<g filter="url(#filter0_d_1_1330)">
<path d="M15 28.9403C22.4558 28.9403 28.5 22.933 28.5 15.5225C28.5 8.11209 22.4558 2.10474 15 2.10474C7.54416 2.10474 1.5 8.11209 1.5 15.5225C1.5 22.933 7.54416 28.9403 15 28.9403Z" fill="#1C1E21"/>
<path d="M28 15.5225C28 22.6539 22.1826 28.4403 15 28.4403C7.81741 28.4403 2 22.6539 2 15.5225C2 8.39111 7.81741 2.60474 15 2.60474C22.1826 2.60474 28 8.39111 28 15.5225Z" stroke="white"/>
</g>
<path d="M20.793 14.8681L12.1093 10.1603C11.6095 9.88942 11.0001 10.2489 11.0001 10.8148V20.2303C11.0001 20.7961 11.6094 21.1556 12.1093 20.8847L20.793 16.177C21.3142 15.8944 21.3142 15.1507 20.793 14.8681Z" fill="white"/>
<path d="M12.9792 16.6126V10.632L12.1092 10.1603C11.6094 9.88942 11.0001 10.2489 11.0001 10.8148V20.2303C11.0001 20.7961 11.6094 21.1556 12.1092 20.8847L20.793 16.1769C21.0545 16.0351 21.1845 15.7772 21.1835 15.5197L14.2643 17.5653C13.6232 17.7548 12.9792 17.2774 12.9792 16.6126Z" fill="#E4EAF8"/>
</g>
<defs>
<filter id="filter0_d_1_1330" x="-2.5" y="-1.89526" width="35" height="34.8356" filterUnits="userSpaceOnUse" color-interpolation-filters="sRGB">
<feFlood flood-opacity="0" result="BackgroundImageFix"/>
<feColorMatrix in="SourceAlpha" type="matrix" values="0 0 0 0 0 0 0 0 0 0 0 0 0 0 0 0 0 0 127 0" result="hardAlpha"/>
<feOffset/>
<feGaussianBlur stdDeviation="2"/>
<feComposite in2="hardAlpha" operator="out"/>
<feColorMatrix type="matrix" values="0 0 0 0 0 0 0 0 0 0 0 0 0 0 0 0 0 0 0.3 0"/>
<feBlend mode="normal" in2="BackgroundImageFix" result="effect1_dropShadow_1_1330"/>
<feBlend mode="normal" in="SourceGraphic" in2="effect1_dropShadow_1_1330" result="shape"/>
</filter>
<clipPath id="clip0_1_1330">
<rect width="30" height="29.8173" fill="white" transform="translate(0 0.613876)"/>
</clipPath>
</defs>
</svg>
